<mxfile host="app.diagrams.net" modified="2024-10-30T18:22:45.479Z" agent="Mozilla/5.0 (Windows NT 10.0; Win64; x64) AppleWebKit/537.36 (KHTML, like Gecko) Chrome/130.0.0.0 Safari/537.36" version="21.3.4" etag="5QFf9BRIY33QB6XBkLBl" type="github">
  <diagram name="Page-1" id="XAHnvTei2YGS_CoMUAeI">
    <mxGraphModel>
      <root>
        <mxCell id="0" />
        <mxCell id="1" parent="0" />
      </root>
    </mxGraphModel>
  </diagram>
</mxfile>
